<mxfile host="app.diagrams.net" agent="Mozilla/5.0 (Windows NT 10.0; Win64; x64) AppleWebKit/537.36 (KHTML, like Gecko) Chrome/138.0.0.0 Safari/537.36" version="28.0.6">
  <diagram name="PÃ¡gina-1" id="OCr-dNxOLW1ZL5Z-DdSU">
    <mxGraphModel grid="1" page="1" gridSize="10" guides="1" tooltips="1" connect="1" arrows="1" fold="1" pageScale="1" pageWidth="827" pageHeight="1169" math="0" shadow="0">
      <root>
        <mxCell id="0" />
        <mxCell id="1" parent="0" />
        <mxCell id="o8bKtESSsTaSYlI8oNMr-1" value="" style="html=1;verticalAlign=bottom;startArrow=oval;startFill=1;endArrow=block;startSize=8;curved=0;rounded=0;" edge="1" parent="1">
          <mxGeometry width="60" relative="1" as="geometry">
            <mxPoint x="570" y="90" as="sourcePoint" />
            <mxPoint x="570" y="170" as="targetPoint" />
          </mxGeometry>
        </mxCell>
        <mxCell id="o8bKtESSsTaSYlI8oNMr-2" style="edgeStyle=orthogonalEdgeStyle;rounded=0;orthogonalLoop=1;jettySize=auto;html=1;" edge="1" parent="1" source="o8bKtESSsTaSYlI8oNMr-3" target="o8bKtESSsTaSYlI8oNMr-6">
          <mxGeometry relative="1" as="geometry" />
        </mxCell>
        <mxCell id="o8bKtESSsTaSYlI8oNMr-3" value="Ref" style="shape=umlFrame;whiteSpace=wrap;html=1;pointerEvents=0;" vertex="1" parent="1">
          <mxGeometry x="460" y="170" width="250" height="90" as="geometry" />
        </mxCell>
        <mxCell id="o8bKtESSsTaSYlI8oNMr-4" value="Buacar citas&amp;nbsp;" style="text;html=1;align=center;verticalAlign=middle;resizable=0;points=[];autosize=1;strokeColor=none;fillColor=none;" vertex="1" parent="1">
          <mxGeometry x="525" y="208" width="90" height="30" as="geometry" />
        </mxCell>
        <mxCell id="o8bKtESSsTaSYlI8oNMr-5" style="edgeStyle=orthogonalEdgeStyle;rounded=0;orthogonalLoop=1;jettySize=auto;html=1;" edge="1" parent="1" source="o8bKtESSsTaSYlI8oNMr-6" target="o8bKtESSsTaSYlI8oNMr-9">
          <mxGeometry relative="1" as="geometry" />
        </mxCell>
        <mxCell id="o8bKtESSsTaSYlI8oNMr-6" value="Ref" style="shape=umlFrame;whiteSpace=wrap;html=1;pointerEvents=0;" vertex="1" parent="1">
          <mxGeometry x="460" y="350" width="250" height="90" as="geometry" />
        </mxCell>
        <mxCell id="o8bKtESSsTaSYlI8oNMr-7" value="ver citas&amp;nbsp;" style="text;html=1;align=center;verticalAlign=middle;resizable=0;points=[];autosize=1;strokeColor=none;fillColor=none;" vertex="1" parent="1">
          <mxGeometry x="535" y="388" width="70" height="30" as="geometry" />
        </mxCell>
        <mxCell id="o8bKtESSsTaSYlI8oNMr-8" style="edgeStyle=orthogonalEdgeStyle;rounded=0;orthogonalLoop=1;jettySize=auto;html=1;" edge="1" parent="1" source="o8bKtESSsTaSYlI8oNMr-9">
          <mxGeometry relative="1" as="geometry">
            <mxPoint x="785" y="610" as="targetPoint" />
          </mxGeometry>
        </mxCell>
        <mxCell id="o8bKtESSsTaSYlI8oNMr-9" value="" style="rhombus;whiteSpace=wrap;html=1;" vertex="1" parent="1">
          <mxGeometry x="553.5" y="520" width="63" height="50" as="geometry" />
        </mxCell>
        <mxCell id="o8bKtESSsTaSYlI8oNMr-10" style="edgeStyle=orthogonalEdgeStyle;rounded=0;orthogonalLoop=1;jettySize=auto;html=1;" edge="1" parent="1" source="o8bKtESSsTaSYlI8oNMr-11" target="o8bKtESSsTaSYlI8oNMr-17">
          <mxGeometry relative="1" as="geometry" />
        </mxCell>
        <mxCell id="o8bKtESSsTaSYlI8oNMr-11" value="Sd cita&amp;nbsp;" style="shape=umlFrame;whiteSpace=wrap;html=1;pointerEvents=0;" vertex="1" parent="1">
          <mxGeometry x="140" y="610" width="370" height="200" as="geometry" />
        </mxCell>
        <mxCell id="o8bKtESSsTaSYlI8oNMr-12" style="edgeStyle=orthogonalEdgeStyle;rounded=0;orthogonalLoop=1;jettySize=auto;html=1;entryX=0.5;entryY=0;entryDx=0;entryDy=0;" edge="1" parent="1" target="o8bKtESSsTaSYlI8oNMr-17">
          <mxGeometry relative="1" as="geometry">
            <mxPoint x="660" y="655" as="sourcePoint" />
            <Array as="points">
              <mxPoint x="660" y="710" />
              <mxPoint x="580" y="710" />
            </Array>
          </mxGeometry>
        </mxCell>
        <mxCell id="o8bKtESSsTaSYlI8oNMr-13" value="cita pendiente" style="text;html=1;align=center;verticalAlign=middle;resizable=0;points=[];autosize=1;strokeColor=none;fillColor=none;" vertex="1" parent="1">
          <mxGeometry x="770" y="660" width="100" height="30" as="geometry" />
        </mxCell>
        <mxCell id="o8bKtESSsTaSYlI8oNMr-14" value="Ref" style="shape=umlFrame;whiteSpace=wrap;html=1;pointerEvents=0;" vertex="1" parent="1">
          <mxGeometry x="470" y="990" width="250" height="90" as="geometry" />
        </mxCell>
        <mxCell id="o8bKtESSsTaSYlI8oNMr-15" value="Enviar notificacion" style="text;html=1;align=center;verticalAlign=middle;resizable=0;points=[];autosize=1;strokeColor=none;fillColor=none;" vertex="1" parent="1">
          <mxGeometry x="533" y="1020" width="120" height="30" as="geometry" />
        </mxCell>
        <mxCell id="o8bKtESSsTaSYlI8oNMr-16" style="edgeStyle=orthogonalEdgeStyle;rounded=0;orthogonalLoop=1;jettySize=auto;html=1;entryX=0.447;entryY=0.013;entryDx=0;entryDy=0;entryPerimeter=0;" edge="1" parent="1" source="o8bKtESSsTaSYlI8oNMr-9" target="o8bKtESSsTaSYlI8oNMr-11">
          <mxGeometry relative="1" as="geometry" />
        </mxCell>
        <mxCell id="o8bKtESSsTaSYlI8oNMr-17" value="" style="rounded=0;whiteSpace=wrap;html=1;" vertex="1" parent="1">
          <mxGeometry x="530" y="870" width="120" height="20" as="geometry" />
        </mxCell>
        <mxCell id="o8bKtESSsTaSYlI8oNMr-18" style="edgeStyle=orthogonalEdgeStyle;rounded=0;orthogonalLoop=1;jettySize=auto;html=1;entryX=0.479;entryY=0.042;entryDx=0;entryDy=0;entryPerimeter=0;" edge="1" parent="1" source="o8bKtESSsTaSYlI8oNMr-17" target="o8bKtESSsTaSYlI8oNMr-14">
          <mxGeometry relative="1" as="geometry" />
        </mxCell>
        <mxCell id="o8bKtESSsTaSYlI8oNMr-19" style="edgeStyle=orthogonalEdgeStyle;rounded=0;orthogonalLoop=1;jettySize=auto;html=1;entryX=0.51;entryY=0.007;entryDx=0;entryDy=0;entryPerimeter=0;" edge="1" parent="1" source="o8bKtESSsTaSYlI8oNMr-14" target="o8bKtESSsTaSYlI8oNMr-22">
          <mxGeometry relative="1" as="geometry">
            <mxPoint x="595.5" y="1210.63" as="targetPoint" />
          </mxGeometry>
        </mxCell>
        <mxCell id="o8bKtESSsTaSYlI8oNMr-20" value="Sd cuenta&amp;nbsp;" style="shape=umlFrame;whiteSpace=wrap;html=1;pointerEvents=0;" vertex="1" parent="1">
          <mxGeometry x="660" y="610" width="320" height="200" as="geometry" />
        </mxCell>
        <mxCell id="o8bKtESSsTaSYlI8oNMr-21" value="agendar citas&amp;nbsp;" style="text;html=1;align=center;verticalAlign=middle;resizable=0;points=[];autosize=1;strokeColor=none;fillColor=none;" vertex="1" parent="1">
          <mxGeometry x="220" y="680" width="100" height="30" as="geometry" />
        </mxCell>
        <mxCell id="o8bKtESSsTaSYlI8oNMr-22" value="" style="ellipse;html=1;shape=endState;fillColor=#000000;strokeColor=#ff0000;" vertex="1" parent="1">
          <mxGeometry x="580.4999999999998" y="1195.63" width="30" height="30" as="geometry" />
        </mxCell>
        <mxCell id="o8bKtESSsTaSYlI8oNMr-23" value="cliente" style="shape=umlLifeline;perimeter=lifelinePerimeter;whiteSpace=wrap;html=1;container=1;dropTarget=0;collapsible=0;recursiveResize=0;outlineConnect=0;portConstraint=eastwest;newEdgeStyle={&quot;curved&quot;:0,&quot;rounded&quot;:0};" vertex="1" parent="1">
          <mxGeometry x="150" y="650" width="70" height="150" as="geometry" />
        </mxCell>
        <mxCell id="o8bKtESSsTaSYlI8oNMr-24" value="sistema&amp;nbsp;" style="shape=umlLifeline;perimeter=lifelinePerimeter;whiteSpace=wrap;html=1;container=1;dropTarget=0;collapsible=0;recursiveResize=0;outlineConnect=0;portConstraint=eastwest;newEdgeStyle={&quot;curved&quot;:0,&quot;rounded&quot;:0};" vertex="1" parent="1">
          <mxGeometry x="370" y="640" width="70" height="150" as="geometry" />
        </mxCell>
        <mxCell id="o8bKtESSsTaSYlI8oNMr-25" value="" style="html=1;points=[[0,0,0,0,5],[0,1,0,0,-5],[1,0,0,0,5],[1,1,0,0,-5]];perimeter=orthogonalPerimeter;outlineConnect=0;targetShapes=umlLifeline;portConstraint=eastwest;newEdgeStyle={&quot;curved&quot;:0,&quot;rounded&quot;:0};" vertex="1" parent="o8bKtESSsTaSYlI8oNMr-24">
          <mxGeometry x="30" y="70" width="10" height="80" as="geometry" />
        </mxCell>
        <mxCell id="o8bKtESSsTaSYlI8oNMr-26" value="" style="html=1;verticalAlign=bottom;startArrow=oval;endArrow=block;startSize=8;curved=0;rounded=0;entryX=0;entryY=0;entryDx=0;entryDy=5;" edge="1" parent="1" source="o8bKtESSsTaSYlI8oNMr-23" target="o8bKtESSsTaSYlI8oNMr-25">
          <mxGeometry relative="1" as="geometry">
            <mxPoint x="285" y="715" as="sourcePoint" />
          </mxGeometry>
        </mxCell>
        <mxCell id="o8bKtESSsTaSYlI8oNMr-27" value="base de datos&amp;nbsp;" style="shape=umlLifeline;perimeter=lifelinePerimeter;whiteSpace=wrap;html=1;container=1;dropTarget=0;collapsible=0;recursiveResize=0;outlineConnect=0;portConstraint=eastwest;newEdgeStyle={&quot;curved&quot;:0,&quot;rounded&quot;:0};" vertex="1" parent="1">
          <mxGeometry x="900" y="640" width="70" height="150" as="geometry" />
        </mxCell>
        <mxCell id="o8bKtESSsTaSYlI8oNMr-28" value="" style="html=1;points=[[0,0,0,0,5],[0,1,0,0,-5],[1,0,0,0,5],[1,1,0,0,-5]];perimeter=orthogonalPerimeter;outlineConnect=0;targetShapes=umlLifeline;portConstraint=eastwest;newEdgeStyle={&quot;curved&quot;:0,&quot;rounded&quot;:0};" vertex="1" parent="o8bKtESSsTaSYlI8oNMr-27">
          <mxGeometry x="30" y="70" width="10" height="80" as="geometry" />
        </mxCell>
        <mxCell id="o8bKtESSsTaSYlI8oNMr-29" value="sistema&amp;nbsp;" style="shape=umlLifeline;perimeter=lifelinePerimeter;whiteSpace=wrap;html=1;container=1;dropTarget=0;collapsible=0;recursiveResize=0;outlineConnect=0;portConstraint=eastwest;newEdgeStyle={&quot;curved&quot;:0,&quot;rounded&quot;:0};" vertex="1" parent="1">
          <mxGeometry x="680" y="640" width="70" height="150" as="geometry" />
        </mxCell>
        <mxCell id="o8bKtESSsTaSYlI8oNMr-31" value="" style="html=1;verticalAlign=bottom;startArrow=oval;endArrow=block;startSize=8;curved=0;rounded=0;entryX=0;entryY=0;entryDx=0;entryDy=5;" edge="1" parent="1">
          <mxGeometry relative="1" as="geometry">
            <mxPoint x="720" y="740" as="sourcePoint" />
            <mxPoint x="935" y="740" as="targetPoint" />
          </mxGeometry>
        </mxCell>
      </root>
    </mxGraphModel>
  </diagram>
</mxfile>
